<svg width="17" height="16" viewBox="0 0 17 16" fill="none" xmlns="http://www.w3.org/2000/svg">
<path fill-rule="evenodd" clip-rule="evenodd" d="M9.83073 2.47141C10.6606 1.69036 12.0061 1.69036 12.8359 2.47141L14.3741 3.91912C15.204 4.70017 15.204 5.9665 14.3741 6.74755L8.08507 12.6667H14.875C15.2662 12.6667 15.5833 12.9651 15.5833 13.3333C15.5833 13.7015 15.2662 14 14.875 14H2.83333C2.44213 14 2.125 13.7015 2.125 13.3333V10C2.125 9.82319 2.19963 9.65362 2.33247 9.5286L9.83073 2.47141ZM6.0816 12.6667L11.7483 7.33334L9.20833 4.94281L3.54167 10.2761V12.6667H6.0816ZM10.2101 4L12.75 6.39053L13.3724 5.80474C13.649 5.54439 13.649 5.12228 13.3724 4.86193L11.8342 3.41422C11.5576 3.15387 11.1091 3.15387 10.8325 3.41422L10.2101 4Z" fill="black" fill-opacity="0.3"/>
</svg>
