<svg width="20" height="20" viewBox="0 0 20 20" fill="none" xmlns="http://www.w3.org/2000/svg">
<g clip-path="url(#clip0_147_272)">
<path d="M14.5833 5.41663H14.5917M5.83332 1.66663H14.1667C16.4678 1.66663 18.3333 3.53211 18.3333 5.83329V14.1666C18.3333 16.4678 16.4678 18.3333 14.1667 18.3333H5.83332C3.53214 18.3333 1.66666 16.4678 1.66666 14.1666V5.83329C1.66666 3.53211 3.53214 1.66663 5.83332 1.66663ZM13.3333 9.47496C13.4362 10.1685 13.3177 10.8768 12.9948 11.4991C12.6719 12.1215 12.1609 12.6261 11.5347 12.9414C10.9084 13.2566 10.1987 13.3663 9.50648 13.2549C8.81426 13.1435 8.17479 12.8167 7.67902 12.3209C7.18325 11.8252 6.85643 11.1857 6.74505 10.4935C6.63366 9.80125 6.74338 9.09154 7.05859 8.46527C7.37381 7.839 7.87848 7.32808 8.50081 7.00516C9.12314 6.68224 9.83145 6.56378 10.525 6.66663C11.2324 6.77153 11.8874 7.10118 12.3931 7.60688C12.8988 8.11258 13.2284 8.76752 13.3333 9.47496Z" stroke="white" stroke-width="2" stroke-linecap="round" stroke-linejoin="round"/>
</g>
<defs>
<clipPath id="clip0_147_272">
<rect width="20" height="20" fill="white"/>
</clipPath>
</defs>
</svg>
