<svg width="21" height="28" viewBox="0 0 21 28" fill="none" xmlns="http://www.w3.org/2000/svg">
<path d="M0.166666 23.3333V20.6667H2.75V11.3333C2.75 9.48888 3.28819 7.85554 4.36458 6.43332C5.44097 4.98888 6.84028 4.04443 8.5625 3.59999V2.66666C8.5625 2.1111 8.74549 1.64443 9.11146 1.26665C9.49896 0.866656 9.96181 0.666656 10.5 0.666656C11.0382 0.666656 11.4903 0.866656 11.8563 1.26665C12.2438 1.64443 12.4375 2.1111 12.4375 2.66666V3.59999C14.1597 4.04443 15.559 4.98888 16.6354 6.43332C17.7118 7.85554 18.25 9.48888 18.25 11.3333V20.6667H20.8333V23.3333H0.166666ZM10.5 27.3333C9.78958 27.3333 9.17604 27.0778 8.65938 26.5667C8.16424 26.0333 7.91667 25.4 7.91667 24.6667H13.0833C13.0833 25.4 12.825 26.0333 12.3083 26.5667C11.8132 27.0778 11.2104 27.3333 10.5 27.3333ZM5.33333 20.6667H15.6667V11.3333C15.6667 9.86665 15.1608 8.6111 14.149 7.56666C13.1372 6.52221 11.9208 5.99999 10.5 5.99999C9.07917 5.99999 7.86285 6.52221 6.85104 7.56666C5.83924 8.6111 5.33333 9.86665 5.33333 11.3333V20.6667Z" fill="white"/>
</svg>
